<svg xmlns="http://www.w3.org/2000/svg" width="486.062" height="841.348"><path data-name="Stone Watermark" d="M451.648 603.448c42.975-25 36.948-82.68 28.12-123.87-1.313-5.79-2.631-11.6-3.94-17.38-6.811-29.52-15.8-47.58-20.571-55.74a713.66 713.66 0 0 0-6.028-9.89q-26.823-43.365-53.627-86.74c-30.091-46.21-57.031-94.642-85.627-141.8-8.864-14.652-23.177-38.115-26.186-42.927a148.644 148.644 0 0 0-19.861-25.3c-25.761-26.152-59.971-48.124-96.152-56.287-.632-.157-127.76-28.086-133.065-29.217-7.352-1.549-14.727-3-22.086-4.667-29.1-6.592-29.578-6.687-34.219-7.49A165.638 165.638 0 0 0-41.578.155a237.59 237.59 0 0 0-29.133.689c-20.669 1.958-41.355 5.615-60.907 12.768-30.415 11.161-58.441 30.334-86.5 46.008Q-301.3 106.076-384.5 152.538q-59.118 32.984-118.235 66.02c-3.706 2.086-8.507 5.04-12.081 7.284-6.027 3.772-28.562 18.54-65.435 50.125-29.817 25.55-56.7 50.969-66.866 60.7-12.32 11.8-23.96 22.926-44.412 43.316-3.7 3.64-36.2 36.02-44.026 44.7-21.815 24.17-33.057 52.89-37.868 65.17-11.888 31.57-27.2 68.74-18.835 103.02a63.762 63.762 0 0 0 14.969 27.7c2.794 3.08 6.709 6.98 9.615 9.97 3.668 3.78 35.364 37.14 42.987 45.12 8.183 8.67 16.516 17.18 24.789 25.76 28.519 29.45 71.027 52.56 111.321 59.56l333.722 64.22c4.612.88 10.709 2.09 15.317 2.96q11.46 2.2 22.948 4.41c10.159 1.97 20.314 4.09 30.513 5.9a160.739 160.739 0 0 0 22.8 2.59c2.174.11 6.664.32 12.524.29 4.315 0 8.644-.21 12.961-.35a238.492 238.492 0 0 0 53.472-8.1c4.546-1.21 8.975-2.73 13.41-4.29 1.468-.51 3.355-1.4 4.815-1.93 1.977-.73 3.881-1.68 5.8-2.5 62.874-27.02 223.926-96.94 245.56-106.33 67.818-29.29 135.545-58.88 203.427-88.05 20.592-8.845 43.657-14.905 62.956-26.355z" fill="#f2f2f2" fill-rule="evenodd"/></svg>